<?xml version="1.0" encoding="utf-8"?>
<!-- Generator: Adobe Illustrator 15.0.0, SVG Export Plug-In . SVG Version: 6.00 Build 0)  -->
<!DOCTYPE svg PUBLIC "-//W3C//DTD SVG 1.1//EN" "http://www.w3.org/Graphics/SVG/1.1/DTD/svg11.dtd">
<svg version="1.1" id="Layer_1" xmlns="http://www.w3.org/2000/svg" xmlns:xlink="http://www.w3.org/1999/xlink" x="0px" y="0px"
	 width="128px" height="76px" viewBox="0 0 128 76" enable-background="new 0 0 128 76" xml:space="preserve">
<path fill="#FFFFFF" stroke="#000000" stroke-width="2" stroke-miterlimit="10" d="M22.552,19.523
	C31.073,9.248,50.565,2.778,73.256,2.778s53.052,13.771,53.052,38.341S76.856,74.14,46.183,70.228
	c-20.842-2.658-30.276,0.419-44.131,3.6C2.051,73.827,7.528,37.641,22.552,19.523z"/>
<g>
	<g>
		<path d="M29.731,19.85c0.61,5.506,2.794,10.712,2.973,16.275c0.021,0.672,2.775-0.215,3.026-0.334
			c4.45-2.107,8.256-7.204,8.884-12.083c0.809-6.291-8.494-5.146-12.102-4.384c-1.452,0.307-3.472,1.841-0.761,1.269
			c3.675-0.776,9.143-0.903,8.999,4.15c-0.107,3.738-3.885,9.107-7.208,10.681c1.009-0.111,2.018-0.223,3.026-0.334
			c-0.178-5.563-2.363-10.769-2.973-16.275C33.526,18.196,29.629,18.931,29.731,19.85L29.731,19.85z"/>
	</g>
</g>
<g>
	<g>
		<path d="M45.347,19.537c-0.089,4.454,0.579,8.86,0.782,13.302c0.051,1.126,3.071-0.021,3.448-0.321
			c1.695-1.348,3.769-2.578,5.987-2.691c0.86-0.044,1.982-0.295,2.566-0.994c0.577-0.69-0.49-0.928-0.984-0.903
			c-3.863,0.197-7.589,1.798-10.602,4.194c1.149-0.107,2.299-0.214,3.448-0.321c-0.203-4.441-0.871-8.848-0.782-13.302
			C49.229,17.579,45.373,18.205,45.347,19.537L45.347,19.537z"/>
	</g>
</g>
<g>
	<g>
		<path d="M48.674,24.535c2.107-0.802,4.053-2.643,6.328-2.855c0.732-0.068,1.995-0.494,2.19-1.33
			c0.205-0.88-1.163-0.908-1.677-0.86c-3.207,0.298-5.484,2.302-8.382,3.405c-0.49,0.187-1.624,0.942-1.022,1.583
			C46.724,25.13,47.977,24.8,48.674,24.535L48.674,24.535z"/>
	</g>
</g>
<g>
	<g>
		<path d="M49.035,19.922c2.027-1.909,3.925-3.954,6.743-4.562c0.779-0.168,1.816-0.949,1.571-1.866
			c-0.26-0.97-1.516-0.999-2.293-0.831c-3.551,0.768-6.03,3.038-8.594,5.453C44.558,19.909,47.597,21.277,49.035,19.922
			L49.035,19.922z"/>
	</g>
</g>
<g>
	<g>
		<path d="M59.431,15.781c-0.063,3.45-0.845,6.999,0.19,10.375c0.982,3.205,4.622,2.904,7.222,2.207
			c7.653-2.051,7.936-10.789,6.153-17.217c-0.203-0.733-3.906,0.182-3.863,1.035c0.247,4.938,1.581,12.268,7.377,13.337
			c0.866,0.16,4.158-1.241,3.195-1.419c-5.353-0.987-6.485-8.492-6.709-12.954c-1.288,0.345-2.575,0.69-3.863,1.035
			c1.254,4.522,1.897,11.145-1.899,14.661c-2.939,2.722-4.154-3.165-4.255-4.75c-0.155-2.451,0.271-4.899,0.315-7.347
			C63.303,14.264,59.45,14.747,59.431,15.781L59.431,15.781z"/>
	</g>
</g>
<g>
	<g>
		<path d="M85.298,10.375c-3.276-0.035-13.25,0.109-9.889,6.164c1.21,2.179,4.913,1.795,6.954,1.739
			c1.634-0.045,3.778-0.043,4.662,1.615c0.402,0.754-0.488,2.202-1.234,2.354c-0.991,0.201-2.138,0.073-3.13-0.086
			c-0.909-0.146-1.883,0.076-2.705,0.478c-0.271,0.133-1.37,0.918-0.457,1.064c2.847,0.457,6,0.418,8.644-0.873
			c2.359-1.152,4.236-4.255,0.95-5.576c-2.887-1.16-6.229,0.245-8.984-1.051c-1.446-0.68-1.821-3.055-0.797-4.219
			c-0.296,0.058-0.246,0.06,0.148,0.006c0.342-0.026,0.684-0.036,1.025-0.03c0.775,0.003,1.55,0.047,2.324,0.055
			c0.932,0.01,1.944-0.213,2.731-0.732C86.138,10.89,86.066,10.383,85.298,10.375L85.298,10.375z"/>
	</g>
</g>
<g>
	<g>
		<path d="M31.731,44.732c1.842,6.278,5.646,11.625,9.39,16.901c0.524,0.739,3.713-0.179,3.863-1.035
			c1.164-6.635,1.184-13.396,2.347-20.031c0.048-0.271-3.669-0.074-3.863,1.035c-1.164,6.635-1.184,13.396-2.347,20.031
			c1.288-0.345,2.576-0.69,3.863-1.035c-3.744-5.276-7.548-10.623-9.39-16.901C35.371,42.934,31.521,44.014,31.731,44.732
			L31.731,44.732z"/>
	</g>
</g>
<g>
	<g>
		<path d="M47.694,42.072c-0.025,3.944-0.719,9.515,2.521,12.437c2.601,2.347,5.916,4.085,9.369,2.744
			c6.742-2.62,2.658-12.83,1.051-17.625c-0.37-1.106-4.181-0.026-3.863,1.035c1.833,6.134,4.057,16.329,12.621,13.552
			c2.223-0.721,1.854-2.269-0.41-1.535c-5.094,1.651-7.406-9.902-8.348-13.052c-1.288,0.345-2.575,0.69-3.863,1.035
			c1.424,4.248,3.367,9.298,2.292,13.81c-0.734,3.078-5.473-1.214-6.366-2.739c-1.725-2.948-1.16-7.432-1.14-10.697
			C51.563,40.144,47.702,40.775,47.694,42.072L47.694,42.072z"/>
	</g>
</g>
<g>
	<g>
		<path d="M68.32,36.36c0.006,6.795,2.156,13.268,3.787,19.796c0.289,1.158,1.979,1.13,2.808,0.697
			c3.373-1.757,6.714-4.18,10.554-4.732c2.178-0.312,2.916-3.356,0.303-2.98c-4.682,0.673-8.482,3.133-12.608,5.283
			c0.936,0.232,1.872,0.465,2.808,0.697c-1.561-6.25-3.72-12.507-3.725-19.013C72.244,33.996,68.319,34.515,68.32,36.36L68.32,36.36
			z"/>
	</g>
</g>
<g>
	<g>
		<path d="M87.118,32.986c-0.064,6.524,3.075,12.214,4.395,18.476c0.331,1.57,4.204,0.58,3.863-1.035
			c-1.265-6.004-4.431-11.58-4.369-17.831C91.025,30.764,87.132,31.484,87.118,32.986L87.118,32.986z"/>
	</g>
</g>
<g>
	<g>
		<path d="M80.909,35.77c2.744-0.453,5.238-1.869,7.981-2.191c1.441-0.169,2.887,0.142,4.334-0.156
			c1.67-0.343,3.527-1.339,5.212-1.409c2.192-0.09,2.977-2.937,0.344-2.828c-2.881,0.119-5.286,1.587-8.258,1.582
			c-3.413-0.006-5.99,1.632-9.27,2.174C79.15,33.289,78.293,36.203,80.909,35.77L80.909,35.77z"/>
	</g>
</g>
<g>
	<g>
		<path d="M100.398,20.632c0.282,8.169,4.512,15.205,6.416,23.005c0.322,1.321,4.192,0.312,3.863-1.035
			c-1.904-7.8-6.134-14.835-6.416-23.005C104.22,18.395,100.347,19.16,100.398,20.632L100.398,20.632z"/>
	</g>
</g>
<g>
	<g>
		<path d="M111.568,48.87c0.048-0.173,0.056-0.197,0.022-0.072c0.02-0.033,0.039-0.067,0.059-0.101
			c-0.179,0.239-0.4,0.423-0.667,0.551c-0.342,0.092-0.685,0.184-1.026,0.274c-0.312,0.021-0.614-0.029-0.907-0.151
			c-0.244-0.122-0.072-0.065,0.026,0.058c0.074,0.117,0.087,0.132,0.038,0.044c0.065,0.134,0.104,0.28,0.145,0.424
			c1.148-0.514,2.297-1.027,3.445-1.54c-1.136-0.533-2.802-0.61-3.706,0.449c1.135,0.189,2.271,0.38,3.405,0.569
			c0.204-0.356,0.15-0.752,0.093-1.14c-1.288,0.345-2.575,0.69-3.863,1.035c0.052,0.261,0.104,0.522,0.156,0.783
			c0.374-0.493,0.749-0.987,1.123-1.48c0.788-0.409,1.43-0.386,1.926,0.068c-0.124-0.111-0.251-0.229-0.386-0.325
			c-0.326-0.229-0.729-0.303-1.116-0.34c-0.88-0.085-2.072,0.311-2.533,1.117c-0.475,0.83,0.405,1.308,1.111,1.375
			c-0.285,0.007-0.518-0.085-0.697-0.275c0.038,0.036,0.077,0.071,0.116,0.105c0.277,0.25,0.402,0.322,0.757,0.457
			c0.775,0.296,1.712,0.053,2.439-0.257c0.562-0.239,1.262-0.784,1.123-1.48c-0.052-0.261-0.104-0.522-0.156-0.783
			c-0.177-0.888-1.632-0.786-2.237-0.623c-0.734,0.196-1.76,0.754-1.626,1.658c0.012,0.079,0.022,0.464,0.022,0.059
			c0,0.173-0.089,0.122,0.103-0.212c-0.349,0.606,0.073,1.135,0.673,1.302c0.86,0.24,2.133-0.029,2.732-0.732
			c-0.778,0.669-1.598,0.911-2.457,0.729c0.134,0.045,0.124,0.041-0.029-0.014c0.739,0.348,1.586,0.271,2.322-0.06
			c0.518-0.233,1.314-0.795,1.123-1.48c-0.307-1.099-0.964-1.651-2.081-1.837c-0.747-0.124-1.74,0.194-2.322,0.662
			c-0.551,0.443-0.845,0.899-1.038,1.576c-0.26,0.911,1.174,1.098,1.726,1.042C110.266,50.218,111.31,49.774,111.568,48.87
			L111.568,48.87z"/>
	</g>
</g>
</svg>
